<svg width="206" height="56" viewBox="0 0 206 56" fill="none" xmlns="http://www.w3.org/2000/svg">
<path d="M130.059 9.85257C129.159 8.36192 127.891 7.20661 126.26 6.39097C124.629 5.57533 122.761 5.16643 120.659 5.16643H112.048V24.8651H120.659C122.759 24.8651 124.626 24.4562 126.26 23.6405C127.891 22.8249 129.159 21.6696 130.059 20.1789C130.959 18.6883 131.409 16.9662 131.409 15.0147C131.409 13.0675 130.959 11.3454 130.059 9.85257ZM126.838 18.578C126.247 19.6013 125.403 20.3888 124.304 20.9427C123.207 21.4965 121.935 21.7734 120.49 21.7734H115.706V8.26456H120.49C121.935 8.26456 123.205 8.54149 124.304 9.09534C125.401 9.6492 126.247 10.4367 126.838 11.46C127.428 12.4834 127.725 13.669 127.725 15.0212C127.725 16.3734 127.428 17.5546 126.838 18.578Z" fill="#2E3A4C"/>
<path d="M143.652 9.67085C141.101 9.67085 139.319 10.4584 138.306 12.0356V9.83961H134.957V24.8673H138.475V17.5784C138.475 16.077 138.86 14.9282 139.628 14.1298C140.396 13.3337 141.467 12.9334 142.836 12.9334C143.079 12.9334 143.351 12.9615 143.652 13.0178V9.67085Z" fill="#2E3A4C"/>
<path d="M159.608 22.6151L157.722 20.4472C156.653 21.5355 155.292 22.0785 153.641 22.0785C152.348 22.0785 151.264 21.754 150.392 21.1071C149.52 20.4602 148.979 19.584 148.773 18.4763H160.565C160.601 18.0263 160.621 17.6801 160.621 17.4357C160.621 15.8974 160.298 14.5431 159.649 13.3683C159.002 12.1957 158.1 11.2848 156.947 10.6379C155.794 9.99106 154.485 9.66653 153.02 9.66653C151.538 9.66653 150.206 9.99538 149.024 10.6509C147.843 11.3086 146.917 12.2216 146.253 13.3942C145.587 14.5669 145.253 15.8844 145.253 17.3491C145.253 18.8311 145.595 20.1595 146.281 21.3321C146.967 22.5047 147.936 23.4199 149.193 24.0754C150.45 24.7331 151.904 25.0598 153.555 25.0598C154.849 25.0598 156.012 24.8543 157.044 24.4411C158.079 24.0322 158.933 23.4221 159.608 22.6151ZM150.167 13.4829C150.946 12.8166 151.898 12.4834 153.023 12.4834C154.167 12.4834 155.123 12.8209 155.894 13.4959C156.662 14.1709 157.122 15.0536 157.272 16.1419H148.745C148.914 15.0363 149.388 14.1493 150.167 13.4829Z" fill="#2E3A4C"/>
<path d="M168.753 16.0856C166.596 16.0856 165.015 16.4945 164.011 17.3102C163.007 18.1258 162.505 19.2097 162.505 20.5597C162.505 21.423 162.734 22.1975 163.195 22.8812C163.654 23.567 164.307 24.1014 165.151 24.4843C165.995 24.8694 166.979 25.062 168.106 25.062C169.231 25.062 170.194 24.8889 170.99 24.5406C171.788 24.1944 172.401 23.6925 172.833 23.0348V24.8651H176.154V16.0575C176.154 13.9178 175.568 12.319 174.395 11.2589C173.223 10.1987 171.529 9.66869 169.316 9.66869C168.078 9.66869 166.905 9.82879 165.798 10.1468C164.69 10.467 163.745 10.9257 162.955 11.525L164.333 14.0866C164.896 13.6171 165.586 13.2514 166.401 12.9897C167.217 12.7279 168.048 12.5959 168.892 12.5959C170.129 12.5959 171.064 12.8772 171.691 13.4397C172.319 14.0022 172.634 14.8092 172.634 15.8606V16.0856H168.753ZM172.637 20.1681C172.355 20.9189 171.873 21.4965 171.187 21.8989C170.501 22.3035 169.718 22.5047 168.837 22.5047C167.937 22.5047 167.234 22.3165 166.726 21.9422C166.22 21.5679 165.966 21.0595 165.966 20.4234C165.966 19.0907 166.979 18.4244 169.006 18.4244H172.637V20.1681Z" fill="#2E3A4C"/>
<path d="M204.129 11.3173C203.021 10.2204 201.522 9.67085 199.626 9.67085C198.445 9.67085 197.365 9.89153 196.39 10.3329C195.414 10.7742 194.616 11.3887 193.997 12.1762C193.491 11.3519 192.8 10.7266 191.929 10.3048C191.057 9.88287 190.057 9.67085 188.932 9.67085C187.9 9.67085 186.961 9.85042 186.117 10.2052C185.274 10.5622 184.571 11.0771 184.006 11.7521V9.83961H180.657V24.8673H184.175V17.2409C184.175 15.7784 184.527 14.662 185.23 13.8918C185.934 13.1238 186.885 12.7387 188.086 12.7387C189.174 12.7387 190.01 13.0719 190.592 13.7382C191.174 14.4046 191.463 15.3933 191.463 16.7065V24.8673H194.981V17.2409C194.981 15.7957 195.338 14.6858 196.05 13.907C196.762 13.1281 197.712 12.7387 198.893 12.7387C199.981 12.7387 200.816 13.0719 201.398 13.7382C201.98 14.4046 202.27 15.3933 202.27 16.7065V24.8673H205.788V16.2565C205.788 14.0606 205.234 12.4142 204.129 11.3173Z" fill="#2E3A4C"/>
<path d="M124.613 29.9623C123.348 29.3998 121.859 29.1185 120.152 29.1185H112.048V48.8172H115.706V43.1315H120.152C121.859 43.1315 123.346 42.8503 124.613 42.2878C125.879 41.7253 126.851 40.9139 127.526 39.8538C128.201 38.7937 128.538 37.5519 128.538 36.124C128.538 34.6787 128.201 33.4326 127.526 32.3811C126.851 31.3318 125.879 30.5248 124.613 29.9623ZM123.614 39.023C122.787 39.6981 121.578 40.0356 119.984 40.0356H115.706V32.2123H119.984C121.578 32.2123 122.787 32.5499 123.614 33.2249C124.44 33.8999 124.851 34.867 124.851 36.124C124.854 37.3809 124.44 38.348 123.614 39.023Z" fill="#2E3A4C"/>
<path d="M142.694 34.6052C141.474 33.9497 140.096 33.6208 138.557 33.6208C137.039 33.6208 135.667 33.9497 134.449 34.6052C133.229 35.2629 132.277 36.1716 131.593 37.3355C130.907 38.4995 130.565 39.8214 130.565 41.3034C130.565 42.7854 130.907 44.1138 131.593 45.2864C132.279 46.459 133.231 47.3742 134.449 48.0297C135.669 48.6874 137.039 49.0141 138.557 49.0141C140.096 49.0141 141.474 48.6852 142.694 48.0297C143.914 47.3742 144.866 46.459 145.55 45.2864C146.236 44.1138 146.577 42.7875 146.577 41.3034C146.577 39.8214 146.236 38.4995 145.55 37.3355C144.866 36.1716 143.914 35.2629 142.694 34.6052ZM141.766 44.7087C140.922 45.572 139.851 46.0025 138.557 46.0025C137.264 46.0025 136.197 45.572 135.364 44.7087C134.529 43.8455 134.111 42.7096 134.111 41.3034C134.111 39.8971 134.529 38.7613 135.364 37.898C136.199 37.0348 137.264 36.6043 138.557 36.6043C139.851 36.6043 140.922 37.037 141.766 37.898C142.61 38.7613 143.032 39.8971 143.032 41.3034C143.032 42.7096 142.61 43.8455 141.766 44.7087Z" fill="#2E3A4C"/>
<path d="M153.332 27.669C152.899 27.2839 152.365 27.0914 151.729 27.0914C151.09 27.0914 150.556 27.2926 150.125 27.6971C149.693 28.1017 149.479 28.6036 149.479 29.2029C149.479 29.8044 149.693 30.3063 150.125 30.7087C150.556 31.1133 151.09 31.3145 151.729 31.3145C152.384 31.3145 152.925 31.1025 153.347 30.6806C153.769 30.2587 153.981 29.7373 153.981 29.1186C153.979 28.5366 153.764 28.0519 153.332 27.669Z" fill="#2E3A4C"/>
<path d="M153.472 33.7896H149.955V48.8172H153.472V33.7896Z" fill="#2E3A4C"/>
<path d="M166.613 33.6208C165.506 33.6208 164.513 33.8004 163.63 34.1552C162.747 34.5122 162.016 35.0379 161.434 35.7302V33.7895H158.085V48.8172H161.603V41.219C161.603 39.7565 161.977 38.6358 162.728 37.8569C163.479 37.0781 164.5 36.6886 165.796 36.6886C166.94 36.6886 167.823 37.0218 168.442 37.6882C169.06 38.3545 169.37 39.3432 169.37 40.6565V48.8172H172.888V40.2065C172.888 38.03 172.314 36.3879 171.172 35.2824C170.03 34.1746 168.509 33.6208 166.613 33.6208Z" fill="#2E3A4C"/>
<path d="M183.444 46.115C182.769 46.115 182.251 45.9224 181.897 45.5373C181.54 45.1522 181.362 44.5941 181.362 43.8628V36.7146H185.386V33.8999H181.362V30.4664H177.844V33.8999H175.367V36.7146H177.844V43.9472C177.844 45.5979 178.294 46.8549 179.194 47.7182C180.094 48.5814 181.371 49.0119 183.022 49.0119C183.679 49.0119 184.302 48.9275 184.893 48.7588C185.484 48.59 185.986 48.3369 186.399 47.9994L185.414 45.4941C184.889 45.9095 184.231 46.115 183.444 46.115Z" fill="#2E3A4C"/>
<path d="M28 56C43.464 56 56 43.464 56 28C56 12.536 43.464 0 28 0C12.536 0 0 12.536 0 28C0 43.464 12.536 56 28 56Z" fill="#4270B7"/>
<path d="M93.1731 0V56C77.7084 56 65.1753 43.4647 65.1753 27.9978C65.1753 12.5353 77.7106 0 93.1731 0Z" fill="#2E3A4C"/>
</svg>
